# xmcd CD database file
# Copyright (C) 1993-1998 Ti Kan
# 
# Track frame offsets:
# 182
# 16565
# 32655
# 53452
# 74255
# 98260
# 112675
# 140555
# 163770
# 181052
# 196195
# 209270
# 
# Disc length: 3101 seconds
# 
# Revision: 0
# Processed by: cddbd v1.4b41PL1 Copyright (c) Steve Scherf et al.
# Submitted via: SuperSonic v3.0
# 
DISCID=880c1b0c
DTITLE=Chuck Pyle - Endless Sky
DYEAR=1900
DGENRE=
TTITLE0=Rio Rey
TTITLE1=Endless Sky
TTITLE2=Gypsy Minor
TTITLE3=Everday Now
TTITLE4=Akasha Wind
TTITLE5=Slow Time Kid
TTITLE6=The Winter Of Our Affair
TTITLE7=Moonglow Rising
TTITLE8=Your Life In Love With Mine
TTITLE9=Keepers Of The Earth
TTITLE10=Texas Mosey
TTITLE11=Sailing
EXTD=
EXTT0=
EXTT1=
EXTT2=
EXTT3=
EXTT4=
EXTT5=
EXTT6=
EXTT7=
EXTT8=
EXTT9=
EXTT10=
EXTT11=
PLAYORDER=
